<svg width="20" height="24" viewBox="0 0 18 20" fill="none" xmlns="http://www.w3.org/2000/svg">
<path d="M12 7L8 11L6 9M17 8.16505C17 14.7333 12.0319 17.6781 9.92578 18.6314L9.92313 18.6325C9.70162 18.7328 9.59058 18.7831 9.33887 18.8263C9.17946 18.8537 8.82154 18.8537 8.66214 18.8263C8.40942 18.7829 8.29723 18.7325 8.07395 18.6314C5.9678 17.6781 1 14.7333 1 8.16504V4.2002C1 3.08009 1 2.51962 1.21799 2.0918C1.40973 1.71547 1.71547 1.40973 2.0918 1.21799C2.51962 1 3.08009 1 4.2002 1H13.8002C14.9203 1 15.4796 1 15.9074 1.21799C16.2837 1.40973 16.5905 1.71547 16.7822 2.0918C17 2.5192 17 3.07899 17 4.19691V8.16505Z" stroke="#F5B900" stroke-width="2" stroke-linecap="round" stroke-linejoin="round"/>
</svg>
