<svg width="28" height="24" viewBox="0 0 28 24" fill="none" xmlns="http://www.w3.org/2000/svg">
<path d="M20.6667 22C20.6667 19.7909 17.6819 18 14 18C10.3181 18 7.33333 19.7909 7.33333 22M26 18.0005C26 16.3602 24.3545 14.9506 22 14.3333M2 18.0005C2 16.3602 3.64546 14.9506 6 14.3333M22 8.98148C22.8183 8.24905 23.3333 7.18467 23.3333 6C23.3333 3.79086 21.5425 2 19.3333 2C18.3089 2 17.3743 2.38514 16.6667 3.01852M6 8.98148C5.18167 8.24905 4.66667 7.18467 4.66667 6C4.66667 3.79086 6.45753 2 8.66667 2C9.69114 2 10.6257 2.38514 11.3333 3.01852M14 14C11.7909 14 10 12.2091 10 10C10 7.79086 11.7909 6 14 6C16.2091 6 18 7.79086 18 10C18 12.2091 16.2091 14 14 14Z" stroke="#F5B900" stroke-width="2.5" stroke-linecap="round" stroke-linejoin="round"/>
</svg>
